<?xml version="1.0" standalone="no"?><!DOCTYPE svg PUBLIC "-//W3C//DTD SVG 1.1//EN" "http://www.w3.org/Graphics/SVG/1.1/DTD/svg11.dtd"><svg t="1600071575332" class="icon" viewBox="0 0 1024 1024" version="1.1" xmlns="http://www.w3.org/2000/svg" p-id="13821" xmlns:xlink="http://www.w3.org/1999/xlink" width="200" height="200"><defs><style type="text/css"></style></defs><path d="M974.222222 776.092444a98.602667 98.602667 0 0 1-98.588444 98.588445H148.366222A98.602667 98.602667 0 0 1 49.777778 776.092444V247.921778a98.602667 98.602667 0 0 1 98.588444-98.588445h727.281778a98.602667 98.602667 0 0 1 98.588444 98.588445v528.170666z m-56.888889-528.170666a41.699556 41.699556 0 0 0-41.699555-41.699556H148.366222A41.699556 41.699556 0 0 0 106.666667 247.921778v528.170666a41.699556 41.699556 0 0 0 41.699555 41.699556h727.281778a41.699556 41.699556 0 0 0 41.699556-41.699556V247.921778z" fill="#707070" p-id="13822"></path><path d="M500.039111 596.366222c-3.185778 0-6.357333-1.080889-8.988444-3.2l-238.435556-194.133333a14.236444 14.236444 0 0 1 17.962667-22.058667l229.546666 186.88 223.971556-178.346666a14.222222 14.222222 0 1 1 17.720889 22.243555L508.899556 593.251556a14.037333 14.037333 0 0 1-8.860445 3.114666zM293.816889 656.810667a14.222222 14.222222 0 0 1-10.908445-23.324445l6.229334-7.438222a14.222222 14.222222 0 1 1 21.831111 18.218667l-6.229333 7.438222a14.108444 14.108444 0 0 1-10.922667 5.105778z" fill="#707070" p-id="13823"></path><path d="M330.140444 613.290667a14.222222 14.222222 0 0 1-10.638222-23.665778l80-90.112a14.222222 14.222222 0 1 1 21.276445 18.887111l-80 90.112a14.236444 14.236444 0 0 1-10.638223 4.778667zM685.752889 639.672889c-4.067556 0-8.106667-1.749333-10.936889-5.105778l-85.560889-102.328889a14.222222 14.222222 0 0 1 21.831111-18.247111l85.560889 102.328889a14.250667 14.250667 0 0 1-10.894222 23.352889z" fill="#707070" p-id="13824"></path></svg>