<?xml version="1.0" standalone="no"?><!DOCTYPE svg PUBLIC "-//W3C//DTD SVG 1.1//EN" "http://www.w3.org/Graphics/SVG/1.1/DTD/svg11.dtd"><svg t="1599471553496" class="icon" viewBox="0 0 1024 1024" version="1.1" xmlns="http://www.w3.org/2000/svg" p-id="3296" xmlns:xlink="http://www.w3.org/1999/xlink" width="100" height="100"><defs><style type="text/css"></style></defs><path d="M435.2 537.6H128a128 128 0 0 0-128 128v230.4a128 128 0 0 0 128 128h230.4a128 128 0 0 0 128-128V588.8a51.2 51.2 0 0 0-51.2-51.2z m0 358.4a76.8 76.8 0 0 1-76.8 76.8H128a76.8 76.8 0 0 1-76.8-76.8v-230.4a76.8 76.8 0 0 1 76.8-76.8h307.2zM358.4 0H128a128 128 0 0 0-128 128v230.4a128 128 0 0 0 128 128h307.2a51.2 51.2 0 0 0 51.2-51.2V128a128 128 0 0 0-128-128z m76.8 435.2H128a76.8 76.8 0 0 1-76.8-76.8V128a76.8 76.8 0 0 1 76.8-76.8h230.4a76.8 76.8 0 0 1 76.8 76.8zM896 0h-230.4a128 128 0 0 0-128 128v307.2a51.2 51.2 0 0 0 51.2 51.2h307.2a128 128 0 0 0 128-128V128a128 128 0 0 0-128-128z m76.8 358.4a76.8 76.8 0 0 1-76.8 76.8H588.8V128a76.8 76.8 0 0 1 76.8-76.8h230.4a76.8 76.8 0 0 1 76.8 76.8zM896 537.6H588.8a51.2 51.2 0 0 0-51.2 51.2v307.2a128 128 0 0 0 128 128h230.4a128 128 0 0 0 128-128v-230.4a128 128 0 0 0-128-128z m76.8 358.4a76.8 76.8 0 0 1-76.8 76.8h-230.4a76.8 76.8 0 0 1-76.8-76.8V588.8h307.2a76.8 76.8 0 0 1 76.8 76.8z" p-id="3297" fill="#d81e06"></path></svg>