<?xml version="1.0" standalone="no"?><!DOCTYPE svg PUBLIC "-//W3C//DTD SVG 1.1//EN" "http://www.w3.org/Graphics/SVG/1.1/DTD/svg11.dtd"><svg t="1599471580505" class="icon" viewBox="0 0 1024 1024" version="1.1" xmlns="http://www.w3.org/2000/svg" p-id="4145" xmlns:xlink="http://www.w3.org/1999/xlink" width="100" height="100"><defs><style type="text/css"></style></defs><path d="M213.25056 317.50144l69.10976 358.4h495.0656l64.5632-358.4h-628.736z m-5.72928-51.2h665.09312c15.95648 0 28.02432 14.4384 25.19552 30.13888l-73.78944 409.6a25.6 25.6 0 0 1-25.19552 21.06112h-537.6a25.6 25.6 0 0 1-25.1392-20.75392l-110.08-570.88c-6.36928-33.04704 42.8288-43.25376 50.12992-10.39872l31.3856 141.23264z m118.98368 650.24c-33.22624 0-60.16-26.93376-60.16-60.16s26.93376-60.16 60.16-60.16 60.16 26.93376 60.16 60.16-26.93376 60.16-60.16 60.16z m409.6 0c-33.22624 0-60.16-26.93376-60.16-60.16s26.93376-60.16 60.16-60.16 60.16 26.93376 60.16 60.16-26.93376 60.16-60.16 60.16z m-51.99872-518.2208c2.72896-13.8752 16.18688-22.90688 30.05952-20.17792 13.8752 2.72896 22.90688 16.18688 20.17792 30.05952l-37.12 188.70528c-2.72896 13.8752-16.18688 22.90688-30.05952 20.17792-13.8752-2.72896-22.90688-16.18688-20.17792-30.05952l37.12-188.70528z" fill="#2c2c2c" p-id="4146"></path></svg>